<?xml version="1.0" standalone="no"?>
<!DOCTYPE svg PUBLIC "-//W3C//DTD SVG 20010904//EN"
 "http://www.w3.org/TR/2001/REC-SVG-20010904/DTD/svg10.dtd">
<svg version="1.0" xmlns="http://www.w3.org/2000/svg"
 width="111.000000pt" height="111.000000pt" viewBox="0 0 111.000000 111.000000"
 preserveAspectRatio="xMidYMid meet">
<metadata>
Created by potrace 1.11, written by Peter Selinger 2001-2013
</metadata>
<g transform="translate(0.000000,111.000000) scale(0.100000,-0.100000)"
fill="#000000" stroke="none">
<path d="M32 743 c-1 -192 1 -364 4 -383 9 -58 73 -107 256 -198 90 -45 167
-82 171 -82 8 0 41 -27 68 -54 17 -18 19 -17 66 23 27 22 54 41 60 41 15 0 77
32 85 44 4 6 8 8 8 4 0 -9 103 41 111 54 3 6 8 8 10 7 6 -5 119 54 114 60 -3
2 5 9 17 15 11 6 30 24 42 39 20 27 21 39 22 395 0 202 -1 370 -3 374 -2 3
-26 -5 -54 -19 -74 -37 -114 -46 -219 -46 -83 -1 -103 3 -155 27 -32 15 -62
32 -66 37 -4 7 -36 -4 -89 -29 -81 -40 -84 -40 -179 -38 -78 2 -108 8 -161 30
-36 15 -71 28 -77 28 -7 1 -13 5 -13 10 0 4 -4 8 -8 8 -5 0 -9 -156 -10 -347z"/>
</g>
</svg>
